<svg xmlns="http://www.w3.org/2000/svg" xmlns:xlink="http://www.w3.org/1999/xlink" width="500" zoomAndPan="magnify" viewBox="0 0 375 374.999991" height="500" preserveAspectRatio="xMidYMid meet" version="1.0"><defs><clipPath id="5c4c46763e"><path d="M 13.058594 12.230469 L 180 12.230469 L 180 361 L 13.058594 361 Z M 13.058594 12.230469 " clip-rule="nonzero"/></clipPath><clipPath id="789724bb97"><path d="M 194 13 L 361.628906 13 L 361.628906 361 L 194 361 Z M 194 13 " clip-rule="nonzero"/></clipPath></defs><g clip-path="url(#5c4c46763e)"><path fill="#1d9bf0" d="M 168.546875 13.15625 C 161.078125 14.484375 157.03125 19.296875 155.148438 26.550781 C 154.238281 30.25 153.820312 34.015625 152.914062 37.644531 C 152.214844 40.503906 152.214844 41.410156 149.703125 42.597656 C 146.84375 43.992188 143.492188 44.828125 140.5625 45.945312 C 135.675781 47.828125 130.929688 49.78125 126.113281 51.804688 C 123.742188 52.851562 121.371094 53.898438 118.996094 54.945312 C 116.554688 56.0625 112.714844 58.921875 110.203125 58.992188 C 104.132812 59.199219 98.269531 50.757812 93.035156 48.457031 C 83.542969 44.203125 76.84375 52.992188 70.632812 59.0625 C 66.863281 62.6875 63.234375 66.457031 59.605469 70.222656 C 56.1875 73.710938 50.464844 77.898438 48.371094 82.152344 C 44.742188 89.546875 51.511719 97.359375 55.558594 102.871094 C 56.535156 104.128906 58 105.664062 58.558594 107.199219 C 59.328125 109.289062 58.421875 111.035156 57.511719 113.265625 C 55.558594 118.148438 52.90625 122.683594 50.8125 127.429688 C 47.8125 134.054688 47.113281 141.730469 43.972656 148.21875 C 40.902344 154.425781 33.925781 153.589844 28.0625 154.707031 C 19.410156 156.378906 15.359375 160.21875 14.3125 169.007812 C 13.058594 180.167969 13.617188 191.472656 13.476562 202.773438 C 13.40625 208.703125 15.429688 215.609375 21.292969 218.191406 C 26.179688 220.351562 31.832031 219.933594 36.855469 221.398438 C 43.902344 223.492188 43.902344 228.234375 45.789062 234.445312 C 48.578125 244.070312 54.234375 252.511719 57.722656 261.863281 C 58.558594 264.164062 59.398438 265.558594 58.351562 267.582031 C 57.511719 269.046875 55.769531 270.371094 54.722656 271.699219 C 52.070312 275.046875 49.695312 278.746094 48.441406 282.789062 C 45.300781 293.324219 53.605469 298.488281 60.234375 305.113281 C 67.144531 312.019531 73.5625 320.53125 81.730469 325.972656 C 88.988281 330.789062 97.433594 323.601562 103.015625 319.277344 C 104.410156 318.230469 106.226562 316.277344 107.898438 315.71875 C 110.132812 314.949219 112.085938 316.417969 114.25 317.460938 C 119.554688 319.902344 124.789062 322.277344 130.09375 324.578125 C 135.117188 326.742188 140.140625 328.832031 145.238281 330.789062 C 147.050781 331.484375 150.539062 332.183594 151.867188 333.578125 C 152.914062 334.695312 153.261719 337.207031 153.613281 338.671875 C 155.007812 344.601562 154.449219 352.066406 158.707031 356.878906 C 161.425781 359.949219 164.429688 360.367188 168.195312 360.226562 C 170.988281 360.15625 173.78125 360.019531 176.570312 360.019531 C 177.480469 360.019531 178.316406 359.949219 179.222656 359.949219 L 179.222656 287.253906 C 147.191406 285.09375 118.089844 265.699219 101.550781 238.492188 C 92.824219 224.191406 85.988281 205.5625 86.542969 188.609375 C 87.171875 171.101562 91.570312 153.378906 100.433594 138.242188 C 108.667969 124.148438 120.324219 112.011719 134.070312 103.222656 C 141.050781 98.757812 148.585938 95.128906 156.402344 92.476562 C 160.242188 91.222656 164.148438 90.175781 168.128906 89.40625 C 171.757812 88.710938 175.664062 88.78125 179.292969 88.152344 L 179.292969 13.15625 C 179.152344 13.15625 179.085938 13.085938 179.015625 13.085938 C 175.664062 12.390625 171.894531 12.597656 168.546875 13.15625 Z M 168.546875 13.15625 " fill-opacity="1" fill-rule="nonzero"/></g><path fill="#1d9bf0" d="M 174.617188 116.40625 C 171.476562 116.546875 168.128906 117.871094 165.195312 118.988281 C 153.191406 123.3125 142.304688 130.707031 133.859375 140.195312 C 116.972656 159.171875 110.832031 186.238281 119.34375 210.375 C 128.347656 235.980469 152.214844 256.070312 179.363281 258.929688 L 179.363281 229.980469 C 179.015625 229.910156 178.59375 229.910156 178.105469 229.910156 C 158.289062 226.5625 145.375 207.726562 144.609375 188.402344 C 144.257812 179.054688 146.703125 169.425781 152.285156 161.820312 C 155.496094 157.496094 159.753906 153.867188 164.148438 150.867188 C 167.082031 148.914062 170.289062 147.519531 173.640625 146.472656 C 175.175781 145.984375 176.78125 145.496094 178.316406 145.078125 C 178.664062 145.007812 179.015625 144.871094 179.363281 144.800781 L 179.363281 116.265625 C 177.339844 116.335938 175.316406 116.40625 174.617188 116.40625 Z M 174.617188 116.40625 " fill-opacity="1" fill-rule="nonzero"/><g clip-path="url(#789724bb97)"><path fill="#0f1419" d="M 360.3125 167.332031 C 360.171875 166.285156 360.035156 165.308594 359.824219 164.402344 C 359.335938 162.378906 358.5 160.707031 356.476562 159.171875 C 354.171875 157.425781 351.308594 156.519531 348.519531 155.820312 C 346.566406 155.332031 344.609375 154.84375 342.9375 153.730469 C 340.980469 152.335938 339.726562 150.242188 338.328125 148.289062 C 335.679688 144.660156 331.351562 143.824219 328.628906 140.265625 C 326.046875 136.847656 325.070312 132.519531 323.394531 128.613281 C 322.277344 125.894531 321.09375 123.035156 320.953125 120.035156 C 320.8125 115.429688 323.1875 110.753906 321.929688 106.359375 C 321.582031 105.035156 320.882812 103.847656 320.671875 102.523438 C 320.253906 100.082031 322.207031 98.894531 323.394531 97.082031 C 324.582031 95.199219 325.699219 93.382812 326.1875 91.152344 C 327.582031 84.105469 324.09375 79.363281 319.347656 74.757812 C 313.136719 68.6875 307.621094 61.710938 301.273438 55.78125 C 297.222656 52.015625 292.269531 48.316406 286.617188 47.828125 C 280.335938 47.269531 276.289062 53.132812 270.007812 52.433594 C 268.054688 52.222656 266.238281 51.527344 264.355469 51.316406 C 260.933594 50.96875 257.585938 52.222656 254.234375 52.503906 C 250.816406 52.78125 247.117188 51.667969 243.90625 50.480469 C 236.160156 47.550781 229.597656 41.898438 224.644531 35.34375 C 222.132812 32.0625 220.039062 28.503906 218.363281 24.808594 C 216.6875 21.109375 215.222656 17.414062 211.523438 15.25 C 206.707031 12.460938 199.660156 13.296875 194.355469 13.996094 L 194.355469 88.640625 C 196.242188 88.851562 198.402344 88.851562 199.941406 89.058594 C 200.21875 89.128906 200.496094 89.128906 200.707031 89.199219 C 204.058594 89.757812 207.40625 90.246094 210.757812 90.875 C 217.457031 92.058594 224.503906 93.453125 230.367188 97.152344 C 232.808594 98.6875 234.972656 100.710938 236.578125 103.152344 C 238.53125 106.152344 238.324219 110.617188 240.695312 113.128906 C 243.136719 115.707031 247.046875 115.289062 250.257812 115.011719 C 252.210938 114.871094 254.164062 114.382812 255.839844 115.289062 C 258.074219 116.617188 260.375 119.894531 262.050781 121.847656 C 268.472656 129.3125 273.84375 137.683594 277.894531 146.613281 C 279.777344 150.867188 281.382812 155.265625 282.636719 159.730469 C 283.894531 164.261719 285.988281 170.261719 285.570312 175.007812 C 285.359375 177.519531 284.523438 176.960938 282.707031 178.632812 C 281.3125 179.890625 280.265625 181.496094 279.566406 183.238281 C 278.382812 186.378906 278.589844 189.9375 279.988281 192.9375 C 281.660156 196.492188 285.847656 197.609375 285.847656 201.515625 C 285.847656 206.261719 283.683594 210.726562 282.359375 215.191406 C 280.40625 221.886719 276.984375 228.445312 274.054688 234.792969 C 271.195312 241.003906 267.984375 247.421875 263.238281 252.445312 C 261.214844 254.535156 258.910156 256.351562 256.257812 257.605469 C 252.558594 259.28125 249.488281 258.511719 245.789062 259 C 239.71875 259.839844 238.183594 266.535156 236.300781 271.28125 C 233.230469 278.746094 227.855469 278.8125 220.875 281.1875 C 215.570312 283 210.199219 284.464844 204.683594 285.511719 C 203.148438 285.789062 201.613281 286.070312 200.007812 286.277344 C 199.101562 286.417969 198.195312 286.558594 197.289062 286.628906 C 196.589844 286.695312 195.332031 286.695312 194.355469 286.835938 L 194.355469 360.714844 C 194.566406 360.644531 194.773438 360.644531 194.984375 360.574219 C 201.613281 359.320312 210.476562 362.320312 215.640625 356.738281 C 218.292969 353.949219 218.644531 349.832031 220.316406 346.554688 C 222.203125 342.648438 224.992188 338.949219 227.996094 335.808594 C 231.761719 331.695312 236.300781 328.34375 241.253906 325.695312 C 244.953125 323.8125 248.859375 321.925781 252.980469 321.371094 C 257.234375 320.8125 261.214844 322.765625 265.539062 322.695312 C 267.773438 322.695312 270.007812 322.277344 272.171875 322.554688 C 275.3125 322.902344 278.03125 324.648438 280.894531 325.972656 C 285.289062 327.996094 290.175781 327.925781 294.363281 325.414062 C 298.480469 323.042969 301.34375 318.996094 304.691406 315.71875 C 309.507812 311.042969 314.324219 306.300781 318.789062 301.347656 C 322.070312 297.71875 325.976562 293.742188 326.816406 288.71875 C 327.722656 283.417969 323.605469 279.582031 322.207031 274.835938 C 321.09375 271.070312 321.929688 267.164062 321.789062 263.328125 C 321.71875 258.792969 320.742188 254.605469 321.648438 250.070312 C 322.695312 245.328125 324.929688 240.863281 327.929688 237.027344 C 331.769531 232.074219 336.722656 228.027344 341.820312 224.398438 C 346.496094 221.050781 352.078125 219.238281 356.613281 215.75 C 360.035156 213.097656 360.382812 208.773438 360.800781 204.726562 C 361.21875 200.820312 361.5 196.84375 361.570312 192.867188 C 361.777344 184.355469 361.359375 175.773438 360.3125 167.332031 Z M 354.101562 176.402344 C 353.960938 183.097656 353.960938 189.726562 353.960938 196.425781 C 353.960938 198.9375 353.824219 201.378906 353.960938 203.890625 C 354.03125 206.191406 354.449219 208.421875 353.335938 210.585938 C 350.890625 215.328125 344.75 215.75 340.285156 214.214844 C 335.816406 212.679688 331.421875 209.679688 326.464844 210.65625 C 319.976562 211.910156 319.976562 218.957031 320.394531 224.191406 C 320.671875 227.398438 321.230469 230.609375 321.441406 233.816406 C 321.71875 239.605469 318.511719 247.839844 314.113281 251.675781 C 310.832031 254.535156 306.226562 255.652344 303.503906 259.140625 C 300.503906 262.839844 299.039062 267.929688 302.738281 271.769531 C 306.4375 275.535156 312.578125 275.746094 316.90625 278.605469 C 323.742188 283.140625 320.882812 290.605469 316.625 296.046875 C 310.625 303.71875 301.691406 308.464844 295.410156 315.925781 C 292.6875 319.136719 290.453125 321.996094 285.777344 321.648438 C 281.59375 321.300781 277.753906 318.371094 275.800781 314.742188 C 273.914062 311.253906 275.171875 307.277344 272.308594 304.277344 C 269.726562 301.554688 265.960938 300.859375 262.46875 301.765625 C 259.121094 302.601562 256.117188 304.765625 254.304688 307.765625 C 253.398438 309.300781 253.398438 311.042969 252.699219 312.578125 C 251.722656 314.949219 249.558594 316.347656 247.257812 317.882812 C 243.207031 320.53125 238.460938 322.835938 233.507812 322.972656 C 228.484375 323.183594 224.921875 319.625 220.039062 319.625 C 209.710938 319.695312 208.246094 329.53125 212.082031 337.066406 C 213.898438 340.625 215.570312 343.832031 214.386719 347.949219 C 213.828125 349.691406 212.78125 352.972656 211.382812 354.15625 C 209.5 355.832031 206.359375 354.855469 203.847656 354.714844 C 202.589844 354.644531 201.335938 354.785156 200.078125 354.785156 L 200.078125 291.648438 C 201.125 291.300781 202.242188 291.160156 203.359375 291.023438 C 209.082031 290.324219 214.664062 289 220.109375 287.183594 C 225.480469 285.371094 230.507812 282.582031 235.8125 280.699219 C 238.8125 279.652344 242.023438 278.953125 245.230469 278.953125 C 246.347656 278.953125 247.535156 279.023438 248.722656 279.234375 C 250.046875 279.511719 251.511719 279.859375 252.839844 279.441406 C 256.398438 278.394531 257.722656 273.582031 258.5625 270.511719 C 260.445312 264.164062 263.097656 259.417969 267.425781 254.398438 C 275.9375 244.492188 282.359375 232.699219 286.476562 220.351562 C 288.429688 214.492188 289.128906 208.285156 291.5 202.632812 C 293.386719 198.097656 297.015625 195.867188 299.738281 192.097656 C 302.808594 187.773438 299.945312 183.449219 296.875 180.03125 C 295.480469 178.496094 293.527344 177.101562 292.410156 175.355469 C 290.945312 173.125 291.011719 169.84375 290.453125 167.195312 C 289.269531 161.265625 287.523438 155.472656 285.359375 149.824219 C 282.640625 142.707031 279.148438 135.941406 274.824219 129.589844 C 272.238281 125.824219 269.378906 122.195312 266.308594 118.777344 C 263.585938 115.777344 259.121094 112.707031 258.5625 108.382812 C 257.863281 103.082031 259.679688 99.734375 254.164062 96.316406 C 251.652344 94.710938 248.652344 93.941406 245.71875 94.78125 C 242.859375 95.617188 240.207031 96.035156 237.207031 95.199219 C 234.765625 94.5 232.601562 93.246094 230.367188 92.128906 C 221.292969 87.316406 211.664062 83.617188 201.265625 83.546875 C 200.917969 83.546875 200.429688 83.546875 200.007812 83.476562 L 200.007812 20.414062 C 201.824219 20.273438 203.570312 20.34375 205.382812 20.203125 C 207.265625 20.0625 209.152344 19.925781 210.894531 20.691406 C 215.433594 22.574219 215.78125 28.574219 214.457031 32.621094 C 213.410156 35.96875 211.453125 38.898438 210.546875 42.316406 C 208.800781 48.597656 213.546875 57.316406 221.015625 55.574219 C 224.367188 54.804688 227.015625 52.222656 230.367188 51.527344 C 234.832031 50.621094 238.882812 54.109375 242.929688 55.363281 C 246 56.339844 249.28125 57.175781 251.722656 59.410156 C 255.140625 62.6875 254.722656 67.710938 258.910156 70.710938 C 262.75 73.363281 268.054688 73.292969 271.542969 70.015625 C 274.824219 66.875 275.3125 62.0625 277.542969 58.292969 C 283.335938 48.386719 293.175781 54.734375 298.828125 60.945312 C 304.484375 67.152344 310.902344 72.59375 316.554688 78.804688 C 321.929688 84.664062 323.394531 94.082031 315.019531 98.128906 C 308.601562 101.199219 298.480469 102.175781 300.363281 112.289062 C 301.832031 120.035156 312.507812 119.335938 316.277344 124.847656 C 319.347656 129.382812 321.511719 135.519531 322.140625 140.960938 C 322.417969 143.753906 322.347656 146.824219 321.511719 149.542969 C 320.8125 151.914062 319.347656 153.867188 319.625 156.519531 C 320.046875 160.355469 323.394531 163.566406 326.953125 164.75 C 331.839844 166.425781 334.210938 164.125 337.980469 161.613281 C 341.402344 159.308594 346.007812 159.03125 349.773438 160.566406 C 351.308594 161.195312 353.890625 162.730469 354.660156 164.332031 C 355.566406 166.84375 354.171875 173.542969 354.101562 176.402344 Z M 354.101562 176.402344 " fill-opacity="1" fill-rule="nonzero"/></g><path fill="#0f1419" d="M 199.9375 258.164062 C 200.007812 258.164062 200.007812 258.164062 200.007812 258.164062 C 219.621094 255.09375 238.53125 240.375 248.582031 223.703125 C 254.375 214.074219 257.515625 203.050781 258.839844 191.890625 C 260.167969 180.9375 257.375 170.125 252.910156 160.148438 C 244.953125 142.359375 230.367188 127.429688 212.152344 120.3125 C 209.082031 119.128906 204.265625 117.105469 199.941406 116.753906 C 197.847656 116.546875 195.890625 116.753906 194.355469 117.59375 L 194.355469 144.800781 C 196.242188 145.078125 198.125 145.496094 199.941406 146.054688 C 207.128906 148.21875 213.617188 152.542969 218.851562 157.984375 C 235.320312 175.355469 233.160156 205.910156 214.945312 221.257812 C 211.734375 223.910156 208.175781 226.074219 204.265625 227.609375 C 202.871094 228.167969 201.476562 228.585938 200.007812 228.933594 C 199.800781 229.003906 199.660156 229.074219 199.449219 229.074219 C 197.984375 229.421875 195.820312 229.492188 194.425781 230.121094 L 194.425781 257.398438 C 195.753906 258.234375 197.636719 258.582031 199.9375 258.164062 Z M 199.9375 258.164062 " fill-opacity="1" fill-rule="nonzero"/></svg>